<svg width="1440" height="693" viewBox="0 0 1440 693" fill="none" xmlns="http://www.w3.org/2000/svg">
<mask id="mask0_788_10864" style="mask-type:alpha" maskUnits="userSpaceOnUse" x="0" y="0" width="1440" height="693">
<rect width="1440" height="693" fill="#FF2C87"/>
</mask>
<g mask="url(#mask0_788_10864)">
<path d="M1547.55 427.433C1546.26 423.381 1541.29 423.273 1537.61 424.353C1532.97 424.732 1526.91 431.431 1530.05 435.699C1530.32 436.077 1530.59 436.347 1530.86 436.563C1532.75 439.318 1537.23 439.588 1540.37 438.346C1544.31 436.833 1549.01 432.079 1547.55 427.379" fill="#F4227C"/>
<path d="M1528 372.112C1528.7 382.917 1530.7 392.749 1533.02 403.284C1533.67 406.147 1537.23 403.338 1537.29 401.393C1537.45 390.156 1538.1 378.973 1537.99 367.682C1537.94 361.523 1527.67 366.926 1528 372.112Z" fill="#F4227C"/>
<path d="M1584.94 405.175C1575.49 409.767 1567.11 415.061 1559.22 421.976C1558.09 422.949 1558.52 424.84 1560.2 424.191C1568.84 420.95 1577.16 417.33 1585.64 413.711C1590.56 411.604 1591.32 402.095 1584.94 405.175Z" fill="#F4227C"/>
<path d="M1572.35 471.517C1568.95 467.735 1565.49 463.953 1562.09 460.171C1558.63 456.336 1553.98 454.013 1550.42 450.285C1549.07 448.88 1546.04 451.69 1546.96 453.202C1549.66 457.74 1550.9 462.873 1553.88 467.195C1557.01 471.679 1560.25 476.055 1563.6 480.43C1566.95 484.752 1576.3 475.947 1572.35 471.517Z" fill="#F4227C"/>
<path d="M1521.24 449.205C1512.49 456.174 1503.14 462.278 1494.6 469.572C1492.88 471.084 1491.42 474.65 1493.31 476.541C1495.31 478.54 1498.71 476.757 1500.28 475.136C1508 467.411 1514.81 458.875 1522.59 451.203C1523.83 449.961 1522.86 447.908 1521.24 449.205Z" fill="#F4227C"/>
<path d="M1517.35 428.513C1508.81 424.137 1500.66 419.059 1491.9 414.899C1485.74 411.982 1477.64 424.948 1483.96 426.676C1493.85 429.432 1503.95 431.16 1513.84 433.646C1516.27 434.24 1520.32 430.026 1517.3 428.513" fill="#F4227C"/>
<path d="M1683.98 178.76C1695.54 197.722 1681.76 216.631 1668.58 229.704C1625.73 272.113 1559.6 284.593 1501.2 277.894C1494.06 284.431 1484.72 289.671 1477.1 293.939C1465.05 300.692 1450.52 304.582 1442.52 290.644C1434.25 276.273 1430.36 257.419 1424.64 241.59C1420.31 229.542 1416.32 217.333 1412.16 205.285C1408 193.292 1404.21 181.299 1400 169.359C1396.65 160.013 1387.52 144.995 1392 134.784C1397.73 121.818 1416.75 122.574 1428.47 120.468C1429.55 120.305 1430.85 120.143 1432.15 120.143C1428.26 100.479 1422.42 81.5161 1413.29 61.5271C1402.92 38.9451 1371.9 9.06969 1392.54 -15.7274C1409.4 -36.0405 1446.57 -43.928 1469.81 -31.6105C1492.82 -19.4551 1506.44 7.98921 1512.38 34.1369C1514.97 32.3541 1517.78 30.6253 1521.19 28.8966C1528.54 25.2229 1536.96 23.062 1544.74 20.5768C1562.14 14.9583 1579.11 10.1502 1597.42 13.5537C1617.09 17.2273 1633.46 28.0322 1633.57 49.5878C1633.68 64.1203 1626.6 75.0332 1619.41 86.0541C1623.46 86.1081 1627.46 86.5403 1631.46 87.4588C1636.27 88.3772 1641.24 89.5117 1645.78 91.4565C1657.18 96.3727 1667.93 106.367 1670.25 119.009C1672.09 129.111 1668.04 139.97 1663.01 148.614C1661.56 151.099 1656.1 156.664 1651.45 161.85C1664.42 162.876 1676.9 167.198 1683.98 178.814M1479.21 249.909C1479.42 248.289 1479.31 246.722 1478.83 245.155C1478.72 244.777 1478.56 244.399 1478.4 244.075C1478.4 244.021 1478.4 243.967 1478.29 243.913C1478.29 241.266 1477.1 239.699 1475.48 238.943C1475.26 238.672 1475.05 238.456 1474.72 238.24C1473.26 237.268 1471.75 237.214 1470.24 237.538C1469.27 235.755 1467.21 234.945 1465 235.809C1461.48 237.16 1459.49 240.887 1459.11 244.453C1458.84 247.694 1457.92 250.936 1458.14 254.231C1458.46 258.337 1460.67 261.255 1464.13 263.415C1465.97 264.604 1468.62 264.064 1470.29 262.713C1474.4 259.364 1478.4 255.474 1479.15 249.909M1652.8 208.797C1665.72 192.32 1647.94 180.272 1630.92 181.731C1625.36 182.217 1617.09 179.246 1616.5 172.709C1615.25 158.663 1636.43 150.343 1638.7 136.351C1643.19 108.636 1601.42 114.633 1586.89 107.232C1583.81 105.719 1580.3 101.883 1581.81 97.9935C1586.18 87.0266 1594.72 78.5988 1599.53 67.6859C1604.23 57.1512 1608.34 43.4291 1593.96 37.1082C1588.83 34.8932 1571 37.7565 1564.68 39.2152C1553.71 41.7543 1542.1 45.0498 1531.78 49.6418C1526.21 52.127 1520.97 55.0443 1515.62 57.7455C1514.97 66.1192 1502.55 68.8204 1494.33 65.579C1492.98 65.741 1491.85 64.9847 1491.04 63.7962C1489.09 62.3916 1487.74 60.5007 1487.31 58.1236C1483.04 36.0818 1474.13 -0.600632 1452.79 -12.702C1434.9 -22.8586 1412.16 -11.2434 1414.1 9.23177C1414.59 14.148 1418.91 21.1171 1420.96 25.493C1425.07 34.1369 1431.17 41.7003 1435.39 50.2901C1445.55 70.7113 1456.41 96.2647 1458.46 119.117C1459.16 126.248 1459.32 135.432 1458.3 144.508C1458.84 145.751 1459.43 146.993 1460.08 148.182C1465.43 159.257 1471.97 169.467 1477.64 180.434C1487.09 198.857 1500.06 219.224 1507.63 239.375C1508.33 239.375 1509.03 239.537 1509.79 239.753C1541.02 247.748 1577.65 244.615 1608.07 233.972C1624.38 228.246 1641.73 223.005 1652.8 208.797Z" fill="#F4227C"/>
<path d="M2072.61 504.795C2068.51 521.813 2050.24 524.676 2035.6 524.622C1988 524.352 1944.18 494.477 1915.39 458.173C1907.77 457.848 1899.66 455.525 1892.96 453.689C1882.43 450.717 1872.16 444.775 1875.51 432.565C1878.92 419.923 1887.29 407.228 1892.91 395.234C1897.23 386.104 1901.82 377.082 1906.2 368.006C1910.58 358.984 1915.17 350.232 1919.49 341.156C1922.84 334.079 1926.14 320.573 1934.3 317.386C1944.72 313.334 1954.94 324.355 1962.61 329.757C1963.31 330.243 1964.12 330.892 1964.88 331.594C1973.68 318.466 1981.03 304.636 1987.08 288.375C1993.89 270.006 1993.24 236.025 2018.58 233.702C2039.33 231.757 2064.45 248.073 2070.56 267.953C2076.61 287.618 2068.88 310.47 2057.65 328.407C2060.08 328.839 2062.62 329.433 2065.48 330.405C2071.58 332.458 2077.53 335.916 2083.26 338.887C2096.11 345.478 2108.27 352.231 2116.54 364.387C2125.45 377.406 2128.59 392.533 2116.59 404.689C2108.54 412.846 2098.49 415.007 2088.39 417.114C2090.6 419.437 2092.6 421.922 2094.33 424.624C2096.49 427.811 2098.65 431.215 2100.11 434.834C2103.73 443.91 2104.16 455.471 2098.38 463.845C2093.79 470.544 2085.47 474.272 2077.85 476.325C2075.64 476.919 2069.48 476.919 2064.02 477.243C2070.67 485.077 2075.2 494.423 2072.72 504.849M1918.84 430.296C1919.87 429.54 1920.68 428.567 1921.27 427.433C1921.38 427.163 1921.55 426.893 1921.65 426.568C1921.65 426.514 1921.65 426.46 1921.65 426.406C1923.11 424.948 1923.38 423.381 1922.84 422.03C1922.84 421.76 1922.84 421.49 1922.84 421.22C1922.57 419.869 1921.76 419.005 1920.73 418.303C1921.17 416.79 1920.52 415.169 1918.79 414.413C1916.09 413.225 1912.9 414.143 1910.69 415.926C1908.74 417.6 1906.42 418.897 1904.69 420.842C1902.58 423.327 1902.2 426.19 1902.91 429.324C1903.28 430.998 1905.07 432.187 1906.74 432.403C1910.9 432.835 1915.28 432.889 1918.79 430.188M2038.57 504.093C2054.94 502.094 2051.76 485.455 2041.49 476.811C2038.09 473.948 2035.11 467.735 2038.46 463.737C2045.6 455.201 2062.08 462.386 2071.15 455.85C2089.09 442.938 2062.45 422.949 2058.46 410.739C2057.59 408.146 2057.75 404.04 2060.78 402.798C2069.37 399.124 2078.82 399.178 2087.58 395.775C2096.06 392.533 2106 387.131 2101.52 375.624C2099.9 371.518 2088.33 363.144 2084.01 360.443C2076.45 355.743 2068.13 351.097 2059.86 347.909C2055.38 346.18 2050.78 344.884 2046.35 343.425C2041.33 347.747 2032.9 342.291 2030.09 335.916C2029.28 335.268 2029.06 334.187 2029.23 333.053C2028.96 331.216 2029.23 329.379 2030.31 327.812C2040.19 313.118 2055.7 287.726 2050.57 269.034C2046.25 253.421 2027.06 247.208 2016.74 259.688C2014.26 262.713 2012.8 268.98 2011.5 272.6C2008.96 279.731 2008.15 287.348 2005.72 294.479C2000 311.551 1991.78 331.81 1980.22 345.748C1976.6 350.124 1971.63 355.311 1965.96 359.849C1965.58 360.821 1965.2 361.847 1964.88 362.874C1961.69 372.058 1959.64 381.404 1956.66 390.642C1951.69 406.201 1947.53 424.786 1940.51 440.237C1940.89 440.669 1941.21 441.101 1941.54 441.641C1954.5 463.521 1976.71 482.213 1999.62 493.234C2011.88 499.123 2024.53 505.876 2038.63 504.147" fill="#F4227C"/>
<path d="M2013.18 712.734C2018.8 684.966 2043.6 669.029 2071.31 670.812C2097.79 672.54 2122.86 686.209 2136.31 709.493C2143.17 721.324 2146.74 734.938 2145.01 748.607C2143.77 758.331 2140.26 770.378 2132.1 776.591C2134.8 778.806 2137.18 781.669 2139.39 784.586C2148.68 794.365 2156.68 806.466 2161.92 817.865C2162.08 818.244 2161.98 818.622 2161.76 818.838C2161.71 818.946 2161.6 819 2161.44 819C2161.44 819 2161.38 819 2161.33 819C2143.71 815.326 2126.42 803.711 2110.49 794.743C2060.67 811.545 2002.37 766.11 2013.18 712.734ZM2033.49 756.71C2040.46 767.947 2050.51 776.213 2062.89 780.859C2074.5 785.181 2091.52 789.287 2103.84 784.911C2104.27 784.424 2104.97 784.208 2106.11 784.424C2106.92 784.424 2107.73 784.695 2108.49 785.127C2120.59 788.963 2133.34 795.553 2144.58 803.495C2143.82 802.685 2143.07 801.874 2142.26 801.01C2136.15 794.473 2131.29 787.288 2125.45 780.589C2123.45 778.266 2123.99 776.159 2125.51 775.565C2133.02 768.487 2135.83 752.01 2136.04 742.61C2136.31 728.455 2130.58 714.355 2121.13 703.928C2102.92 683.831 2068.45 676.268 2044.62 690.314C2021.55 703.928 2020.42 735.695 2033.49 756.764" fill="#F4227C"/>
<path d="M2085.96 759.303C2089.85 759.411 2095.74 760.654 2097.57 764.544C2099.84 767.623 2100.17 771.675 2095.2 773.188C2088.77 775.186 2079.74 773.242 2076.99 766.435C2074.66 760.708 2081.74 759.195 2085.96 759.303Z" fill="#F4227C"/>
<path d="M2062.72 696.203C2070.4 694.69 2078.93 697.175 2085.96 700.363C2086.12 700.417 2086.28 700.525 2086.5 700.687C2087.42 701.227 2088.23 701.984 2088.5 702.902C2090.44 709.385 2092.33 715.976 2093.25 722.675C2093.47 724.188 2093.63 725.7 2093.74 727.267C2093.84 727.969 2094.01 728.672 2094.17 729.428C2095.9 736.289 2097.3 743.204 2097.84 750.443C2097.95 751.848 2097.19 752.658 2095.74 752.442C2090.17 751.686 2082.44 753.415 2078.99 747.958C2077.96 746.337 2077.31 744.501 2076.77 742.556C2075.47 739.584 2074.5 736.343 2073.31 733.534C2068.61 722.837 2062.94 710.627 2060.56 699.174C2060.24 697.554 2061.16 696.527 2062.67 696.257" fill="#F4227C"/>
<path d="M1368.01 359.524C1426.31 452.392 1348.78 579.349 1243.04 583.13C1219.43 611.277 1195.07 645.528 1164.54 664.923C1164.43 664.977 1164.38 664.923 1164.32 664.977C1164 665.085 1163.73 665.085 1163.57 664.923C1162.92 664.707 1162.49 664.113 1162.54 663.248C1164.32 637.965 1170.81 609.494 1181.4 584.535C1183.5 577.512 1185.93 570.435 1189.5 564.33C1169.73 558.441 1154.54 538.236 1145.25 520.787C1132.18 496.26 1129.31 468.059 1133.8 440.939C1142.55 387.509 1180.1 343.965 1228.78 321.924C1279.73 298.801 1337.76 311.227 1368.07 359.578M1361.04 456.822C1370.72 407.93 1345.97 348.882 1292.81 339.59C1237.91 330.027 1178.37 368.871 1158.33 419.653C1147.95 445.963 1147.2 476.703 1157.79 503.121C1164.86 520.787 1181.88 549.744 1201.06 557.739C1204.41 557.739 1206.9 561.359 1204.79 567.139C1198.58 583.887 1194.53 600.904 1187.72 617.598C1186.85 619.705 1185.99 621.758 1185.12 623.865C1200.63 601.012 1220.03 579.511 1240.02 563.628C1241.15 562.277 1242.5 561.305 1244.02 560.602C1246.02 559.36 1247.53 559.252 1248.66 559.9C1274.98 559.468 1304.21 539.587 1322.95 523.218C1343 505.714 1355.97 482.916 1361.15 456.822" fill="#F4227C"/>
<path d="M1263.95 499.015C1256.77 501.932 1246.5 508.523 1245.85 517.167C1243.75 524.622 1246.02 532.402 1256.44 531.753C1269.95 530.943 1285.62 520.895 1285.94 506.092C1286.21 493.666 1271.84 495.827 1263.95 499.015Z" fill="#F4227C"/>
<path d="M1262.93 363.63C1247.42 366.277 1233.1 376.974 1222.13 387.995C1221.86 388.265 1221.59 388.589 1221.38 388.968C1220.03 390.588 1219.05 392.695 1219.16 394.532C1220.14 408.146 1221.27 421.868 1224.24 435.212C1224.94 438.238 1225.7 441.209 1226.57 444.18C1226.84 445.585 1227.05 447.044 1227.27 448.556C1228.89 462.657 1231.16 476.703 1235.26 490.749C1236.02 493.504 1238.07 494.477 1240.61 493.072C1250.61 487.67 1266.28 485.455 1268.92 472.705C1269.73 468.923 1269.63 464.98 1269.19 460.928C1269.57 454.391 1269.03 447.584 1269.36 441.479C1270.55 417.979 1272.54 390.967 1268.92 367.682C1268.44 364.387 1265.9 363.144 1262.93 363.63Z" fill="#F4227C"/>
<path d="M1305.29 128.355C1289.29 83.6771 1279.84 35.2174 1262.06 -8.97438C1259.58 -16.7539 1256.88 -23.831 1254.98 -29.2875C1254.5 -30.6381 1253.85 -31.7186 1253.04 -32.5829C1252.39 -37.229 1248.88 -40.4164 1240.94 -39.498C1195.07 -34.3657 1142.6 -30.53 1099.22 -14.3228C1095.38 -14.7009 1090.84 -9.29853 1091.92 -5.40879C1105.81 46.2923 1125.96 94.5899 1147.41 142.725C1121.42 138.836 1094.09 148.506 1077.98 174.978C1045.03 229.002 1122.34 245.425 1160.11 233.162C1176.05 227.976 1196.25 215.442 1200.74 197.614C1204.25 192.59 1205.93 186.701 1203.71 182.217C1184.53 142.401 1166.65 102.531 1146.55 63.7421C1167.08 62.7697 1187.39 61.149 1207.92 58.7719C1220.08 57.3673 1237.53 56.9351 1250.39 51.6948C1250.72 52.181 1251.09 52.6672 1251.58 53.0994C1259.41 59.7444 1260.6 76.2217 1263.52 85.838C1265.68 92.8612 1268.71 99.4521 1271.95 106.043C1265.25 104.53 1258.01 104.422 1249.96 106.421C1233.59 110.581 1213.44 123.817 1208.14 140.835C1204.03 154.017 1209.92 160.067 1221.86 163.633C1247.26 171.25 1273.79 163.309 1294.75 149.046C1301.77 144.292 1304.75 138.998 1305.18 134.298C1305.77 132.191 1305.88 130.138 1305.23 128.355" fill="#F4227C"/>
<path d="M1747.95 737.478C1758.32 688.37 1776.69 639.532 1785.17 589.938C1787.28 581.564 1788.79 573.676 1790.04 567.734C1790.36 566.221 1790.36 564.924 1790.09 563.682C1792.04 559.144 1790.69 554.282 1783.07 550.716C1738.93 529.917 1689.54 504.309 1641.56 494.801C1638.32 492.316 1631.3 494.693 1630.06 498.799C1613.9 552.985 1605.26 607.657 1597.86 662.924C1576.62 645.042 1546.64 638.559 1517.46 653.47C1457.86 683.832 1518.32 741.475 1559.17 751.362C1576.41 755.576 1601.58 755.414 1615.47 741.907C1621.41 739.314 1626.17 734.938 1626.71 729.698C1631.52 683.237 1637.51 637.425 1640.92 591.342C1659.93 601.823 1679.12 611.709 1698.89 620.893C1710.61 626.35 1726.55 635.642 1741.03 638.073C1741.03 638.721 1741.14 639.37 1741.36 640.018C1744.76 650.337 1736.66 665.787 1733.96 676.106C1731.96 683.615 1731.04 691.233 1730.34 698.904C1725.15 693.826 1718.66 689.72 1710.29 687.073C1693.27 681.725 1667.77 682.481 1653.61 694.852C1642.59 704.469 1644.54 713.167 1653.34 722.999C1671.98 743.906 1700.24 751.47 1727.04 750.227C1736.01 749.849 1741.57 746.716 1744.6 742.718C1746.27 741.151 1747.57 739.368 1747.95 737.423" fill="#F4227C"/>
<path d="M1845.8 80.5437C1869.68 89.1335 1862.06 118.631 1852.23 134.838C1841.47 152.612 1819.38 178.706 1798.36 184.378C1791.39 186.269 1785.07 183.19 1779.39 178.165C1749.46 158.122 1730.23 110.419 1750.6 79.4092C1758.48 67.4158 1773.4 60.1766 1787.71 65.2548C1798.84 69.2526 1804.95 77.9505 1808.19 87.945C1819 79.9494 1832.67 75.8436 1845.74 80.4897M1772.59 75.5735C1767.56 76.1677 1762.86 81.1379 1764.21 86.3783C1765.35 90.7542 1771.4 88.5392 1773.61 86.7565C1774.1 86.3783 1774.59 85.784 1775.07 85.1898C1777.34 84.2713 1778.96 82.2184 1779.88 80.0034C1780.26 79.085 1779.88 78.1126 1779.12 77.5723C1778.58 77.1942 1777.23 76.3298 1776.1 75.9516C1774.96 75.5734 1773.72 75.4114 1772.53 75.5735M1779.45 162.768C1779.45 162.768 1779.83 162.606 1779.66 162.498C1763.62 149.37 1760.11 119.009 1766.53 99.9924C1769.24 92.0508 1756.05 94.9141 1754.49 101.073C1748.22 125.6 1760.75 147.48 1779.45 162.768Z" fill="#F4227C"/>
<path d="M1325.93 657.198C1355.8 643.097 1375.96 677.295 1381.9 701.281C1388.38 727.537 1392.06 771.945 1377.9 796.526C1373.2 804.684 1364.56 807.655 1354.72 808.303C1308.69 817.379 1247.04 791.177 1237.21 743.852C1233.43 725.592 1240.5 705.117 1258.39 696.635C1272.27 690.044 1285.94 692.421 1298.21 698.688C1300.86 681.346 1309.61 664.977 1325.98 657.252M1254.07 720.082C1249.96 725.268 1250.23 734.182 1256.28 737.694C1261.36 740.665 1264.87 733.102 1265.3 729.374C1265.36 728.564 1265.3 727.591 1265.2 726.565C1266.44 723.647 1266.06 720.298 1264.82 717.326C1264.33 716.084 1263.09 715.598 1261.9 715.814C1261.09 715.976 1259.04 716.408 1257.63 717.11C1256.23 717.813 1254.98 718.785 1254.01 720.028M1340.73 793.987C1340.73 793.987 1340.95 793.5 1340.73 793.555C1313.82 796.202 1282.65 771.513 1271.03 748.066C1266.17 738.288 1256.71 753.036 1260.93 760.168C1277.73 788.53 1309.45 797.12 1340.73 793.987Z" fill="#F4227C"/>
<path d="M2109.57 196.642C2113.35 197.56 2115.4 205.988 2110.22 205.285C2086.71 201.99 2063.53 190.483 2052.08 168.549C2046.68 158.176 2044.95 147.534 2046.62 137.539C2022.47 132.515 1999.78 121.008 1984.33 104.746C1974.44 94.3738 1970.44 81.7862 1972.28 69.4687C1948.24 66.9296 1925.17 57.3133 1913.22 35.0013C1909.28 27.546 1908.42 20.4688 1909.77 13.7698C1893.13 8.31335 1877.94 -1.08685 1866.06 -15.5113C1841.15 -45.6568 1872 -71.0481 1901.01 -77.9632C1902.8 -78.3954 1902.36 -74.8839 1900.96 -74.3976C1888.86 -70.616 1874.16 -64.079 1867.46 -52.6259C1855.95 -33.0692 1872.59 -16.3757 1887.24 -6.5433C1894.69 -1.51905 1902.69 2.10058 1910.96 4.63971C1913.55 -13.9446 1940.02 -28.8013 1955.8 -35.2841C1973.41 -42.5234 1996.97 -45.5487 2015.34 -39.336C2027.33 -35.2841 2040.73 -25.1276 2033.98 -11.1894C2025.82 5.72019 2000.21 12.6893 1983.46 16.2009C1962.72 20.5768 1940.51 21.2792 1919.92 16.579C1918.41 24.7367 1920.68 33.1104 1928.89 41.16C1941.75 53.6936 1957.96 58.4478 1974.82 59.3662C1982.65 43.7532 1991.19 33.7047 2009.51 26.7896C2023.44 21.4952 2048.89 13.4456 2062.24 23.9263C2093.79 48.7234 2022.09 66.7675 2008.05 68.7124C2000.7 69.7388 1992.86 70.2791 1984.98 70.171C1975.68 105.719 2017.61 120.9 2050.3 126.032C2053.38 119.495 2058.08 113.444 2064.4 108.204C2079.37 95.7785 2106.87 90.268 2124.8 98.2636C2141.07 105.557 2139.61 119.063 2124.53 127.815C2104.87 139.16 2080.34 142.455 2056.4 139.268C2053.49 150.127 2056.4 161.958 2065.64 173.303C2076.99 187.295 2092.93 192.752 2109.68 196.804M1951.96 -21.1838C1940.24 -13.4584 1928.84 -3.35587 1923.17 7.55701C1941.59 10.7444 1960.93 9.17774 1979.09 5.01788C1992.81 1.88448 2011.61 -3.4099 2020.53 -15.2952C2032.47 -31.2864 2001.08 -31.2864 1992.32 -31.1783C1978.06 -30.9622 1964.61 -27.7748 1952.02 -21.2379M2041.44 49.7499C2044.46 48.5614 2067.53 39.5393 2053.86 30.1391C2050.89 28.0862 2039.38 30.2472 2035.49 30.9495C2029.28 32.084 2023.01 33.5426 2017.02 35.5415C2005.72 41.052 1995.62 49.1016 1989.62 59.2581C1994.97 58.988 2000.32 58.5018 2005.56 57.7995C2017.61 56.1788 2030.04 54.2339 2041.44 49.7499ZM2072.77 116.956C2068.4 120.251 2064.94 123.817 2062.18 127.599C2066.13 127.977 2069.75 128.193 2072.94 128.301C2087.47 128.679 2101.84 126.302 2115.19 120.305C2127.18 116.848 2125.18 111.824 2109.19 105.125C2105.62 105.449 2102.06 105.989 2098.6 106.799C2089.36 108.636 2080.45 111.229 2072.77 117.01" fill="#F4227C"/>
<path d="M1737.36 303.447C1736.28 301.503 1734.06 301.448 1732.23 302.313C1728.61 303.988 1726.39 308.526 1725.69 312.307C1725.09 315.603 1726.28 318.844 1727.26 321.87C1727.8 323.652 1730.17 323.49 1731.42 322.95C1731.63 322.788 1731.9 322.626 1732.17 322.464C1732.44 322.464 1732.77 322.356 1733.09 322.248C1735.68 321.437 1737.47 318.898 1737.58 316.197C1737.74 313.064 1737.63 309.93 1737.79 306.797C1737.79 305.608 1738.01 304.528 1737.41 303.447" fill="#F4227C"/>
<path d="M1758.43 304.636C1758.05 303.393 1756.65 303.285 1755.62 303.393C1752.05 303.826 1750.16 308.147 1750 311.335C1749.84 313.928 1750.33 316.143 1751.19 318.466C1751.19 318.682 1751.19 318.898 1751.19 319.114C1751.24 320.033 1751.73 320.627 1752.27 321.005C1752.65 321.6 1753.14 321.708 1753.73 321.545C1754.32 321.599 1754.86 321.545 1755.46 321.383C1757.57 320.681 1759.89 318.466 1760.11 316.089C1760.54 311.929 1759.51 308.472 1758.38 304.582" fill="#F4227C"/>
<path d="M1749.41 337.212C1747.89 342.237 1743.9 344.344 1738.39 343.101C1736.12 342.561 1733.25 341.21 1731.74 339.427C1730.34 337.807 1728.39 333.107 1729.36 331C1729.74 330.027 1728.77 329.487 1728.07 330.081C1720.34 336.564 1725.42 349.584 1733.09 353.636C1737.79 356.067 1744.49 354.554 1748.6 351.583C1753.73 347.909 1756.27 342.615 1757.78 336.564C1759.24 330.73 1750.54 333.269 1749.41 337.212Z" fill="#F4227C"/>
<path d="M1806.57 299.72C1819.11 335.052 1793.71 378.271 1760.48 390.048C1725.04 402.69 1675.01 386.158 1674.58 341.75C1674.36 317.169 1687.98 290.698 1708.83 277.246C1711.21 275.301 1713.69 273.518 1716.34 271.897C1746.87 252.827 1793.5 262.983 1806.57 299.72ZM1791.23 346.505C1808.73 308.472 1774.48 269.304 1735.31 278.812C1701.92 286.916 1683.01 329.109 1696.89 359.038C1697.27 359.47 1697.59 359.957 1697.97 360.389C1723.58 389.562 1775.07 381.62 1791.28 346.505" fill="#F4227C"/>
<path d="M1901.66 589.938C1895.99 595.61 1894.69 605.01 1893.56 612.628C1893.34 614.194 1893.18 615.815 1893.18 617.382C1888.86 617.382 1884.75 617.706 1880.1 618.138C1875.78 618.516 1871.62 618.57 1867.57 620.407C1861.79 623.108 1851.79 630.294 1853.31 637.911C1853.9 640.99 1857.03 643.908 1858.71 646.393C1861.19 650.174 1863.68 652.281 1867.25 655.199C1871.19 658.44 1875.4 662.384 1880.1 664.707C1881.02 665.355 1881.89 666.057 1882.86 666.598C1883.02 668.381 1883.13 670.109 1883.24 671.892C1885.67 680.374 1882.97 691.071 1888.86 698.742C1897.18 709.601 1910.14 698.742 1917.98 690.368C1932.46 696.905 1951.96 713.275 1964.12 695.177C1973.47 681.292 1962.93 660.763 1952.02 648.662C1954.99 646.447 1957.64 644.07 1959.58 642.071C1965.69 635.912 1972.49 624.621 1969.09 615.707C1966.12 607.819 1956.45 607.711 1949.26 607.063C1941.32 606.361 1935.43 606.631 1928.79 609.17C1927.33 602.309 1922.95 594.422 1918.84 589.667C1913.76 583.833 1906.69 584.643 1901.45 589.829M1913.01 605.28C1915.33 609.008 1918.3 613.06 1919.17 617.382C1919.28 618.192 1919.65 618.732 1920.09 619.056C1919.98 620.947 1920.73 622.46 1922.95 622.784C1928.08 623.54 1933.11 623 1938.29 622.784C1942.72 622.622 1952.67 621.596 1956.07 624.837C1956.29 624.729 1956.5 624.513 1956.77 624.351C1955.85 625.918 1954.99 627.484 1954.23 629.159C1951.69 633.211 1948.24 636.236 1944.78 639.478C1943.48 640.666 1942.13 641.855 1940.83 643.097C1940.29 643.475 1939.81 643.908 1939.37 644.448C1937.27 646.393 1935.21 648.392 1933.54 650.553C1932.68 651.687 1931.97 653.902 1933.49 654.875C1934.84 655.739 1936.13 656.657 1937.43 657.522C1937.54 657.684 1937.65 657.9 1937.81 658.062C1942.18 662.654 1946.29 668.056 1949.42 673.567C1950.94 676.268 1955.15 682.103 1954.23 685.236C1953.15 688.964 1954.94 686.479 1950.07 685.884C1939.48 684.696 1930.89 678.753 1922.36 672.973C1919.49 670.974 1916.79 672.27 1914.52 674.539C1912.36 676.808 1906.85 684.75 1904.31 685.884C1900.15 687.775 1900.64 687.235 1898.64 682.211C1896.58 676.916 1896.58 670.758 1894.96 665.301C1894.85 664.977 1894.75 664.707 1894.64 664.437C1895.5 663.572 1895.99 662.438 1895.07 661.141C1892.8 657.954 1889.07 656.171 1886.05 653.686C1882.91 651.093 1879.94 648.392 1876.97 645.69C1874.43 643.421 1871.68 641.423 1869.51 638.775C1869.08 638.289 1867.95 637.101 1866.87 635.858C1869.95 635.426 1873.08 635.264 1875.94 635.264C1882.91 635.372 1889.34 634.183 1896.21 633.157C1897.29 632.995 1898.26 632.401 1899.18 631.59C1900.53 631.374 1901.82 630.564 1901.93 629.267C1902.04 628.403 1902.15 627.484 1902.2 626.674C1902.8 624.945 1903.07 623.162 1902.85 621.65C1903.66 615.869 1904.69 610.034 1906.15 604.578C1906.58 602.849 1906.63 599.23 1909.44 599.986C1910.74 600.364 1912.47 604.2 1913.12 605.226" fill="#F4227C"/>
<path d="M496.554 427.433C495.257 423.381 490.286 423.273 486.612 424.353C481.966 424.732 475.915 431.431 479.048 435.699C479.318 436.077 479.589 436.347 479.859 436.563C481.75 439.318 486.234 439.588 489.368 438.346C493.312 436.833 498.013 432.079 496.554 427.379" fill="#F4227C"/>
<path d="M476.995 372.112C477.697 382.917 479.697 392.749 482.02 403.284C482.668 406.147 486.234 403.338 486.288 401.393C486.45 390.156 487.099 378.973 486.991 367.682C486.936 361.523 476.671 366.926 476.995 372.112Z" fill="#F4227C"/>
<path d="M533.942 405.175C524.487 409.767 516.112 415.061 508.224 421.976C507.089 422.949 507.522 424.84 509.197 424.191C517.841 420.95 526.162 417.33 534.644 413.711C539.561 411.604 540.318 402.095 533.942 405.175Z" fill="#F4227C"/>
<path d="M521.353 471.517C517.949 467.735 514.492 463.953 511.088 460.171C507.63 456.336 502.983 454.013 499.417 450.285C498.067 448.88 495.041 451.69 495.959 453.202C498.661 457.74 499.904 462.873 502.875 467.195C506.009 471.679 509.251 476.055 512.6 480.43C515.95 484.752 525.297 475.947 521.353 471.517Z" fill="#F4227C"/>
<path d="M470.241 449.205C461.489 456.174 452.142 462.278 443.605 469.572C441.876 471.084 440.417 474.65 442.308 476.541C444.307 478.54 447.711 476.757 449.278 475.136C457.004 467.411 463.812 458.875 471.592 451.203C472.835 449.961 471.862 447.908 470.241 449.205Z" fill="#F4227C"/>
<path d="M466.351 428.513C457.815 424.137 449.656 419.059 440.903 414.899C434.744 411.982 426.64 424.948 432.961 426.676C442.849 429.432 452.952 431.16 462.839 433.646C465.271 434.24 469.323 430.026 466.297 428.513" fill="#F4227C"/>
<path d="M632.978 178.76C644.54 197.722 630.763 216.631 617.58 229.704C574.734 272.113 508.602 284.593 450.196 277.894C443.065 284.431 433.717 289.671 426.099 293.939C414.051 300.692 399.517 304.582 391.521 290.644C383.254 276.273 379.364 257.419 373.637 241.59C369.314 229.542 365.316 217.333 361.156 205.285C356.996 193.292 353.214 181.299 348.999 169.359C345.65 160.013 336.519 144.995 341.003 134.784C346.73 121.818 365.749 122.574 377.473 120.468C378.553 120.305 379.85 120.143 381.147 120.143C377.257 100.479 371.422 81.5161 362.291 61.5271C351.917 38.9451 320.904 9.06969 341.543 -15.7274C358.401 -36.0405 395.573 -43.928 418.805 -31.6105C441.822 -19.4551 455.437 7.98921 461.381 34.1369C463.974 32.3541 466.784 30.6253 470.187 28.8966C477.535 25.2229 485.964 23.062 493.744 20.5768C511.142 14.9583 528.107 10.1502 546.423 13.5537C566.09 17.2273 582.46 28.0322 582.568 49.5878C582.677 64.1203 575.599 75.0332 568.413 86.0541C572.465 86.1081 576.463 86.5403 580.461 87.4588C585.27 88.3772 590.241 89.5117 594.779 91.4565C606.179 96.3727 616.931 106.367 619.254 119.009C621.091 129.111 617.039 139.97 612.015 148.614C610.556 151.099 605.099 156.664 600.452 161.85C613.419 162.876 625.9 167.198 632.978 178.814M428.207 249.909C428.423 248.289 428.315 246.722 427.828 245.155C427.72 244.777 427.558 244.399 427.396 244.075C427.396 244.021 427.396 243.967 427.288 243.913C427.288 241.266 426.099 239.699 424.479 238.943C424.262 238.672 424.046 238.456 423.722 238.24C422.263 237.268 420.75 237.214 419.238 237.538C418.265 235.755 416.212 234.945 413.997 235.809C410.485 237.16 408.486 240.887 408.108 244.453C407.837 247.694 406.919 250.936 407.135 254.231C407.459 258.337 409.674 261.255 413.132 263.415C414.969 264.604 417.617 264.064 419.292 262.713C423.398 259.364 427.396 255.474 428.152 249.909M601.803 208.797C614.716 192.32 596.94 180.272 579.921 181.731C574.356 182.217 566.09 179.246 565.495 172.709C564.253 158.663 585.432 150.343 587.701 136.351C592.186 108.636 550.421 114.633 535.887 107.232C532.807 105.719 529.296 101.883 530.808 97.9935C535.185 87.0266 543.721 78.5988 548.53 67.6859C553.231 57.1512 557.337 43.4291 542.965 37.1082C537.832 34.8932 520.002 37.7565 513.681 39.2152C502.713 41.7543 491.097 45.0498 480.777 49.6418C475.212 52.127 469.971 55.0443 464.622 57.7455C463.974 66.1192 451.547 68.8204 443.335 65.579C441.984 65.741 440.849 64.9847 440.039 63.7962C438.094 62.3916 436.743 60.5007 436.311 58.1236C432.043 36.0818 423.128 -0.600632 401.786 -12.702C383.902 -22.8586 361.156 -11.2434 363.101 9.23177C363.587 14.148 367.91 21.1171 369.963 25.493C374.069 34.1369 380.174 41.7003 384.389 50.2901C394.546 70.7113 405.406 96.2647 407.459 119.117C408.162 126.248 408.324 135.432 407.297 144.508C407.837 145.751 408.432 146.993 409.08 148.182C414.429 159.257 420.967 169.467 426.64 180.434C436.095 198.857 449.062 219.224 456.626 239.375C457.328 239.375 458.031 239.537 458.787 239.753C490.016 247.748 526.648 244.615 557.067 233.972C573.383 228.246 590.727 223.005 601.803 208.797Z" fill="#F4227C"/>
<path d="M1021.61 504.795C1017.51 521.813 999.243 524.676 984.601 524.622C937.001 524.352 893.183 494.477 864.386 458.173C856.768 457.848 848.663 455.525 841.964 453.689C831.428 450.717 821.162 444.775 824.512 432.565C827.916 419.923 836.29 407.228 841.91 395.234C846.232 386.104 850.824 377.082 855.201 368.006C859.577 358.984 864.17 350.232 868.492 341.156C871.842 334.079 875.138 320.573 883.296 317.386C893.724 313.334 903.935 324.355 911.607 329.757C912.31 330.243 913.12 330.892 913.877 331.594C922.684 318.466 930.032 304.636 936.083 288.375C942.891 270.006 942.242 236.025 967.582 233.702C988.329 231.757 1013.45 248.073 1019.56 267.953C1025.61 287.618 1017.88 310.47 1006.65 328.407C1009.08 328.839 1011.62 329.433 1014.48 330.405C1020.58 332.458 1026.53 335.916 1032.26 338.887C1045.11 345.478 1057.27 352.231 1065.54 364.387C1074.45 377.406 1077.59 392.533 1065.59 404.689C1057.54 412.846 1047.49 415.007 1037.39 417.114C1039.6 419.437 1041.6 421.922 1043.33 424.624C1045.49 427.811 1047.65 431.215 1049.11 434.834C1052.73 443.91 1053.16 455.471 1047.38 463.845C1042.79 470.544 1034.47 474.272 1026.85 476.325C1024.64 476.919 1018.48 476.919 1013.02 477.243C1019.67 485.077 1024.2 494.423 1021.72 504.849M867.844 430.296C868.87 429.54 869.681 428.567 870.275 427.433C870.383 427.163 870.545 426.893 870.653 426.568C870.653 426.514 870.653 426.46 870.653 426.406C872.112 424.948 872.382 423.381 871.842 422.03C871.842 421.76 871.842 421.49 871.842 421.22C871.572 419.869 870.761 419.005 869.735 418.303C870.167 416.79 869.519 415.169 867.79 414.413C865.088 413.225 861.9 414.143 859.685 415.926C857.74 417.6 855.417 418.897 853.688 420.842C851.581 423.327 851.203 426.19 851.905 429.324C852.283 430.998 854.066 432.187 855.741 432.403C859.901 432.835 864.278 432.889 867.79 430.188M987.573 504.093C1003.94 502.094 1000.76 485.455 990.49 476.811C987.086 473.948 984.115 467.735 987.465 463.737C994.597 455.201 1011.08 462.386 1020.15 455.85C1038.09 442.938 1011.45 422.949 1007.46 410.739C1006.59 408.146 1006.75 404.04 1009.78 402.798C1018.37 399.124 1027.82 399.178 1036.58 395.775C1045.06 392.533 1055 387.131 1050.52 375.624C1048.9 371.518 1037.33 363.144 1033.01 360.443C1025.45 355.743 1017.13 351.097 1008.86 347.909C1004.38 346.18 999.783 344.884 995.353 343.425C990.328 347.747 981.9 342.291 979.09 335.916C978.28 335.268 978.064 334.187 978.226 333.053C977.956 331.216 978.226 329.379 979.306 327.812C989.194 313.118 1004.7 287.726 999.567 269.034C995.245 253.421 976.065 247.208 965.745 259.688C963.26 262.713 961.801 268.98 960.504 272.6C957.965 279.731 957.154 287.348 954.723 294.479C948.996 311.551 940.783 331.81 929.221 345.748C925.601 350.124 920.63 355.311 914.957 359.849C914.579 360.821 914.201 361.847 913.877 362.874C910.689 372.058 908.636 381.404 905.664 390.642C900.694 406.201 896.533 424.786 889.509 440.237C889.888 440.669 890.212 441.101 890.536 441.641C903.503 463.521 925.709 482.213 948.618 493.234C960.882 499.123 973.525 505.876 987.627 504.147" fill="#F4227C"/>
<path d="M962.179 712.734C967.798 684.966 992.598 669.029 1020.31 670.812C1046.79 672.54 1071.86 686.209 1085.31 709.493C1092.17 721.324 1095.74 734.938 1094.01 748.607C1092.77 758.331 1089.26 770.378 1081.1 776.591C1083.8 778.806 1086.18 781.669 1088.39 784.586C1097.68 794.365 1105.68 806.466 1110.92 817.865C1111.08 818.244 1110.98 818.622 1110.76 818.838C1110.71 818.946 1110.6 819 1110.44 819C1110.44 819 1110.38 819 1110.33 819C1092.71 815.326 1075.42 803.711 1059.49 794.743C1009.67 811.545 951.373 766.11 962.179 712.734ZM982.494 756.71C989.464 767.947 999.513 776.213 1011.89 780.859C1023.5 785.181 1040.52 789.287 1052.84 784.911C1053.27 784.424 1053.97 784.208 1055.11 784.424C1055.92 784.424 1056.73 784.695 1057.49 785.127C1069.59 788.963 1082.34 795.553 1093.58 803.495C1092.82 802.685 1092.07 801.874 1091.26 801.01C1085.15 794.473 1080.29 787.288 1074.45 780.589C1072.45 778.266 1072.99 776.159 1074.51 775.565C1082.02 768.487 1084.83 752.01 1085.04 742.61C1085.31 728.455 1079.58 714.355 1070.13 703.928C1051.92 683.831 1017.45 676.268 993.624 690.314C970.554 703.928 969.419 735.695 982.494 756.764" fill="#F4227C"/>
<path d="M1034.96 759.303C1038.85 759.411 1044.74 760.654 1046.57 764.544C1048.84 767.623 1049.17 771.675 1044.2 773.188C1037.77 775.186 1028.74 773.242 1025.99 766.435C1023.66 760.708 1030.74 759.195 1034.96 759.303Z" fill="#F4227C"/>
<path d="M1011.72 696.203C1019.4 694.69 1027.93 697.175 1034.96 700.363C1035.12 700.417 1035.28 700.525 1035.5 700.687C1036.42 701.227 1037.23 701.984 1037.5 702.902C1039.44 709.385 1041.33 715.976 1042.25 722.675C1042.47 724.188 1042.63 725.7 1042.74 727.267C1042.84 727.969 1043.01 728.672 1043.17 729.428C1044.9 736.289 1046.3 743.204 1046.84 750.443C1046.95 751.848 1046.19 752.658 1044.74 752.442C1039.17 751.686 1031.44 753.415 1027.99 747.958C1026.96 746.337 1026.31 744.501 1025.77 742.556C1024.47 739.584 1023.5 736.343 1022.31 733.534C1017.61 722.837 1011.94 710.627 1009.56 699.174C1009.24 697.554 1010.16 696.527 1011.67 696.257" fill="#F4227C"/>
<path d="M317.014 359.524C375.312 452.392 297.78 579.349 192.044 583.13C168.433 611.277 144.066 645.528 113.539 664.923C113.431 664.977 113.377 664.923 113.323 664.977C112.999 665.085 112.729 665.085 112.567 664.923C111.918 664.707 111.486 664.113 111.54 663.248C113.323 637.965 119.807 609.494 130.397 584.535C132.504 577.512 134.935 570.435 138.501 564.33C118.726 558.441 103.544 538.236 94.2508 520.787C81.1757 496.26 78.3122 468.059 82.7966 440.939C91.5494 387.509 129.1 343.965 177.78 321.924C228.73 298.801 286.758 311.227 317.068 359.578M310.044 456.822C319.715 407.93 294.97 348.882 241.805 339.59C186.911 330.027 127.371 368.871 107.326 419.653C96.9523 445.963 96.1959 476.703 106.786 503.121C113.864 520.787 130.883 549.744 150.063 557.739C153.413 557.739 155.898 561.359 153.791 567.139C147.578 583.887 143.526 600.904 136.718 617.598C135.853 619.705 134.989 621.758 134.125 623.865C149.631 601.012 169.028 579.511 189.018 563.628C190.153 562.277 191.504 561.305 193.017 560.602C195.016 559.36 196.528 559.252 197.663 559.9C223.975 559.468 253.205 539.587 271.954 523.218C291.998 505.714 304.965 482.916 310.152 456.822" fill="#F4227C"/>
<path d="M212.953 499.015C205.768 501.932 195.502 508.523 194.854 517.167C192.746 524.622 195.016 532.402 205.443 531.753C218.951 530.943 234.619 520.895 234.943 506.092C235.214 493.666 220.842 495.827 212.953 499.015Z" fill="#F4227C"/>
<path d="M211.927 363.63C196.42 366.277 182.103 376.974 171.135 387.995C170.865 388.265 170.594 388.589 170.378 388.968C169.028 390.588 168.055 392.695 168.163 394.532C169.136 408.146 170.27 421.868 173.242 435.212C173.944 438.238 174.701 441.209 175.565 444.18C175.835 445.585 176.051 447.044 176.267 448.556C177.888 462.657 180.158 476.703 184.264 490.749C185.02 493.504 187.073 494.477 189.613 493.072C199.608 487.67 215.277 485.455 217.924 472.705C218.735 468.923 218.627 464.98 218.194 460.928C218.572 454.391 218.032 447.584 218.356 441.479C219.545 417.979 221.544 390.967 217.924 367.682C217.438 364.387 214.898 363.144 211.927 363.63Z" fill="#F4227C"/>
<path d="M254.286 128.355C238.293 83.6771 228.838 35.2174 211.062 -8.97438C208.577 -16.7539 205.876 -23.831 203.985 -29.2875C203.498 -30.6381 202.85 -31.7186 202.04 -32.5829C201.391 -37.229 197.879 -40.4164 189.937 -39.498C144.066 -34.3657 91.6034 -30.53 48.2178 -14.3228C44.3817 -14.7009 39.8432 -9.29853 40.9238 -5.40879C54.8094 46.2923 74.9623 94.5899 96.412 142.725C70.4239 138.836 43.085 148.506 26.9842 174.978C-5.97369 229.002 71.3424 245.425 109.109 233.162C125.048 227.976 145.255 215.442 149.739 197.614C153.251 192.59 154.926 186.701 152.711 182.217C133.53 142.401 115.646 102.531 95.5475 63.7421C116.079 62.7697 136.394 61.149 156.925 58.7719C169.082 57.3673 186.533 56.9351 199.392 51.6948C199.716 52.181 200.094 52.6672 200.581 53.0994C208.415 59.7444 209.604 76.2217 212.521 85.838C214.682 92.8612 217.708 99.4521 220.95 106.043C214.25 104.53 207.01 104.422 198.96 106.421C182.589 110.581 162.436 123.817 157.141 140.835C153.035 154.017 158.924 160.067 170.865 163.633C196.258 171.25 222.787 163.309 243.75 149.046C250.774 144.292 253.746 138.998 254.178 134.298C254.772 132.191 254.88 130.138 254.232 128.355" fill="#F4227C"/>
<path d="M696.949 737.478C707.322 688.37 725.692 639.532 734.175 589.938C736.282 581.564 737.795 573.676 739.038 567.734C739.362 566.221 739.362 564.924 739.092 563.682C741.037 559.144 739.686 554.282 732.068 550.716C687.926 529.917 638.543 504.309 590.565 494.801C587.323 492.316 580.299 494.693 579.057 498.799C562.902 552.985 554.257 607.657 546.855 662.924C525.622 645.042 495.635 638.559 466.459 653.47C406.865 683.832 467.324 741.475 508.17 751.362C525.405 755.576 550.583 755.414 564.469 741.907C570.412 739.314 575.167 734.938 575.707 729.698C580.515 683.237 586.513 637.425 589.917 591.342C608.935 601.823 628.115 611.709 647.89 620.893C659.614 626.35 675.553 635.642 690.033 638.073C690.033 638.721 690.141 639.37 690.357 640.018C693.761 650.337 685.657 665.787 682.955 676.106C680.956 683.615 680.038 691.233 679.335 698.904C674.148 693.826 667.665 689.72 659.29 687.073C642.271 681.725 616.769 682.481 602.613 694.852C591.591 704.469 593.536 713.167 602.343 722.999C620.983 743.906 649.241 751.47 676.039 750.227C685.008 749.849 690.573 746.716 693.599 742.718C695.274 741.151 696.571 739.368 696.949 737.423" fill="#F4227C"/>
<path d="M794.796 80.5437C818.677 89.1335 811.059 118.631 801.225 134.838C790.474 152.612 768.376 178.706 747.358 184.378C740.388 186.269 734.067 183.19 728.394 178.165C698.462 158.122 679.227 110.419 699.596 79.4092C707.484 67.4158 722.397 60.1766 736.714 65.2548C747.844 69.2526 753.95 77.9505 757.192 87.945C767.997 79.9494 781.667 75.8436 794.742 80.4897M721.586 75.5735C716.561 76.1677 711.861 81.1379 713.212 86.3783C714.346 90.7542 720.398 88.5392 722.613 86.7565C723.099 86.3783 723.585 85.784 724.072 85.1898C726.341 84.2713 727.962 82.2184 728.88 80.0034C729.258 79.085 728.88 78.1126 728.124 77.5723C727.583 77.1942 726.233 76.3298 725.098 75.9516C723.963 75.5734 722.721 75.4114 721.532 75.5735M728.448 162.768C728.448 162.768 728.826 162.606 728.664 162.498C712.617 149.37 709.105 119.009 715.535 99.9924C718.236 92.0508 705.053 94.9141 703.486 101.073C697.219 125.6 709.754 147.48 728.448 162.768Z" fill="#F4227C"/>
<path d="M274.925 657.198C304.803 643.097 324.956 677.295 330.9 701.281C337.383 727.537 341.057 771.945 326.901 796.526C322.201 804.684 313.556 807.655 303.723 808.303C257.69 817.379 196.042 791.177 186.209 743.852C182.427 725.592 189.505 705.117 207.388 696.635C221.274 690.044 234.943 692.421 247.208 698.688C249.856 681.346 258.608 664.977 274.979 657.252M203.066 720.082C198.96 725.268 199.23 734.182 205.281 737.694C210.36 740.665 213.872 733.102 214.304 729.374C214.358 728.564 214.304 727.591 214.196 726.565C215.439 723.647 215.061 720.298 213.818 717.326C213.332 716.084 212.089 715.598 210.9 715.814C210.09 715.976 208.037 716.408 206.632 717.11C205.227 717.813 203.985 718.785 203.012 720.028M289.729 793.987C289.729 793.987 289.945 793.5 289.729 793.555C262.823 796.202 231.648 771.513 220.031 748.066C215.169 738.288 205.713 753.036 209.928 760.168C226.731 788.53 258.446 797.12 289.729 793.987Z" fill="#F4227C"/>
<path d="M1058.57 196.642C1062.35 197.56 1064.4 205.988 1059.22 205.285C1035.71 201.99 1012.53 190.483 1001.08 168.549C995.677 158.176 993.948 147.534 995.623 137.539C971.472 132.515 948.78 121.008 933.327 104.746C923.44 94.3738 919.442 81.7862 921.279 69.4687C897.236 66.9296 874.165 57.3133 862.225 35.0013C858.281 27.546 857.416 20.4688 858.767 13.7698C842.126 8.31335 826.943 -1.08685 815.057 -15.5113C790.149 -45.6568 821 -71.0481 850.014 -77.9632C851.797 -78.3954 851.365 -74.8839 849.96 -74.3976C837.857 -70.616 823.161 -64.079 816.462 -52.6259C804.954 -33.0692 821.595 -16.3757 836.237 -6.5433C843.693 -1.51905 851.689 2.10058 859.955 4.63971C862.549 -13.9446 889.023 -28.8013 904.8 -35.2841C922.413 -42.5234 945.97 -45.5487 964.34 -39.336C976.335 -35.2841 989.734 -25.1276 982.98 -11.1894C974.822 5.72019 949.212 12.6893 932.463 16.2009C911.716 20.5768 889.51 21.2792 868.924 16.579C867.411 24.7367 869.681 33.1104 877.893 41.16C890.752 53.6936 906.961 58.4478 923.818 59.3662C931.652 43.7532 940.189 33.7047 958.505 26.7896C972.445 21.4952 997.892 13.4456 1011.24 23.9263C1042.79 48.7234 971.094 66.7675 957.046 68.7124C949.698 69.7388 941.864 70.2791 933.976 70.171C924.683 105.719 966.609 120.9 999.297 126.032C1002.38 119.495 1007.08 113.444 1013.4 108.204C1028.37 95.7785 1055.87 90.268 1073.8 98.2636C1090.07 105.557 1088.61 119.063 1073.53 127.815C1053.87 139.16 1029.34 142.455 1005.4 139.268C1002.49 150.127 1005.4 161.958 1014.64 173.303C1025.99 187.295 1041.93 192.752 1058.68 196.804M900.964 -21.1838C889.239 -13.4584 877.839 -3.35587 872.166 7.55701C890.59 10.7444 909.933 9.17774 928.086 5.01788C941.81 1.88448 960.612 -3.4099 969.527 -15.2952C981.468 -31.2864 950.077 -31.2864 941.324 -31.1783C927.06 -30.9622 913.607 -27.7748 901.018 -21.2379M990.436 49.7499C993.462 48.5614 1016.53 39.5393 1002.86 30.1391C999.892 28.0862 988.383 30.2472 984.493 30.9495C978.28 32.084 972.012 33.5426 966.015 35.5415C954.723 41.052 944.62 49.1016 938.622 59.2581C943.971 58.988 949.32 58.5018 954.561 57.7995C966.609 56.1788 979.036 54.2339 990.436 49.7499ZM1021.77 116.956C1017.4 120.251 1013.94 123.817 1011.18 127.599C1015.13 127.977 1018.75 128.193 1021.94 128.301C1036.47 128.679 1050.84 126.302 1064.19 120.305C1076.18 116.848 1074.18 111.824 1058.19 105.125C1054.62 105.449 1051.06 105.989 1047.6 106.799C1038.36 108.636 1029.45 111.229 1021.77 117.01" fill="#F4227C"/>
<path d="M686.359 303.447C685.278 301.503 683.063 301.448 681.226 302.313C677.606 303.988 675.391 308.526 674.689 312.307C674.094 315.603 675.283 318.844 676.255 321.87C676.796 323.652 679.173 323.49 680.416 322.95C680.632 322.788 680.902 322.626 681.172 322.464C681.442 322.464 681.766 322.356 682.091 322.248C684.684 321.437 686.467 318.898 686.575 316.197C686.737 313.064 686.629 309.93 686.791 306.797C686.791 305.608 687.007 304.528 686.413 303.447" fill="#F4227C"/>
<path d="M707.43 304.636C707.052 303.393 705.647 303.285 704.621 303.393C701.055 303.826 699.164 308.147 699.002 311.335C698.84 313.928 699.326 316.143 700.19 318.466C700.19 318.682 700.19 318.898 700.19 319.114C700.245 320.033 700.731 320.627 701.271 321.005C701.649 321.6 702.136 321.708 702.73 321.545C703.324 321.599 703.865 321.545 704.459 321.383C706.566 320.681 708.889 318.466 709.105 316.089C709.538 311.929 708.511 308.472 707.376 304.582" fill="#F4227C"/>
<path d="M698.407 337.212C696.895 342.237 692.897 344.344 687.386 343.101C685.116 342.561 682.253 341.21 680.74 339.427C679.335 337.807 677.39 333.107 678.363 331C678.741 330.027 677.768 329.487 677.066 330.081C669.34 336.564 674.418 349.584 682.091 353.636C686.791 356.067 693.491 354.554 697.597 351.583C702.73 347.909 705.269 342.615 706.782 336.564C708.241 330.73 699.542 333.269 698.407 337.212Z" fill="#F4227C"/>
<path d="M755.571 299.72C768.105 335.052 742.712 378.271 709.484 390.048C674.04 402.69 624.009 386.158 623.577 341.75C623.361 317.169 636.976 290.698 657.831 277.246C660.209 275.301 662.694 273.518 665.341 271.897C695.868 252.827 742.495 262.983 755.571 299.72ZM740.226 346.505C757.732 308.472 723.477 269.304 684.306 278.812C650.916 286.916 632.005 329.109 645.891 359.038C646.269 359.47 646.593 359.957 646.972 360.389C672.581 389.562 724.071 381.62 740.28 346.505" fill="#F4227C"/>
<path d="M850.662 589.938C844.989 595.61 843.693 605.01 842.558 612.628C842.342 614.194 842.18 615.815 842.18 617.382C837.857 617.382 833.751 617.706 829.105 618.138C824.782 618.516 820.622 618.57 816.57 620.407C810.789 623.108 800.793 630.294 802.306 637.911C802.9 640.99 806.034 643.908 807.709 646.393C810.194 650.174 812.68 652.281 816.246 655.199C820.19 658.44 824.404 662.384 829.105 664.707C830.023 665.355 830.888 666.057 831.86 666.598C832.022 668.381 832.13 670.109 832.238 671.892C834.67 680.374 831.968 691.071 837.857 698.742C846.178 709.601 859.145 698.742 866.979 690.368C881.459 696.905 900.964 713.275 913.12 695.177C922.467 681.292 911.932 660.763 901.018 648.662C903.989 646.447 906.637 644.07 908.582 642.071C914.687 635.912 921.495 624.621 918.091 615.707C915.119 607.819 905.448 607.711 898.262 607.063C890.32 606.361 884.431 606.631 877.785 609.17C876.326 602.309 871.95 594.422 867.844 589.667C862.765 583.833 855.687 584.643 850.446 589.829M862.009 605.28C864.332 609.008 867.303 613.06 868.168 617.382C868.276 618.192 868.654 618.732 869.086 619.056C868.978 620.947 869.735 622.46 871.95 622.784C877.083 623.54 882.107 623 887.294 622.784C891.725 622.622 901.666 621.596 905.07 624.837C905.286 624.729 905.502 624.513 905.772 624.351C904.854 625.918 903.989 627.484 903.233 629.159C900.694 633.211 897.236 636.236 893.778 639.478C892.481 640.666 891.13 641.855 889.834 643.097C889.293 643.475 888.807 643.908 888.375 644.448C886.268 646.393 884.215 648.392 882.54 650.553C881.675 651.687 880.973 653.902 882.486 654.875C883.836 655.739 885.133 656.657 886.43 657.522C886.538 657.684 886.646 657.9 886.808 658.062C891.184 662.654 895.291 668.056 898.424 673.567C899.937 676.268 904.151 682.103 903.233 685.236C902.152 688.964 903.935 686.479 899.073 685.884C888.483 684.696 879.892 678.753 871.356 672.973C868.492 670.974 865.791 672.27 863.521 674.539C861.36 676.808 855.849 684.75 853.31 685.884C849.15 687.775 849.636 687.235 847.637 682.211C845.584 676.916 845.584 670.758 843.963 665.301C843.855 664.977 843.747 664.707 843.639 664.437C844.503 663.572 844.989 662.438 844.071 661.141C841.802 657.954 838.073 656.171 835.048 653.686C831.914 651.093 828.943 648.392 825.971 645.69C823.432 643.421 820.676 641.423 818.515 638.775C818.083 638.289 816.948 637.101 815.867 635.858C818.947 635.426 822.081 635.264 824.944 635.264C831.914 635.372 838.344 634.183 845.205 633.157C846.286 632.995 847.258 632.401 848.177 631.59C849.528 631.374 850.824 630.564 850.932 629.267C851.041 628.403 851.149 627.484 851.203 626.674C851.797 624.945 852.067 623.162 851.851 621.65C852.661 615.869 853.688 610.034 855.147 604.578C855.579 602.849 855.633 599.23 858.443 599.986C859.739 600.364 861.468 604.2 862.117 605.226" fill="#F4227C"/>
</g>
</svg>
