<svg width="41" height="41" viewBox="0 0 41 41" fill="none" xmlns="http://www.w3.org/2000/svg">
    <path d="M25.8789 13.1148C26.977 13.1148 28.0141 13.5589 28.7869 14.3731C29.5597 15.1767 29.9969 16.2553 29.9969 17.3973C29.9969 18.5393 29.5699 19.6178 28.7869 20.4214L20.5203 29.0181L12.2639 20.4214C11.4912 19.6178 11.0539 18.5393 11.0539 17.3973C11.0539 16.2553 11.481 15.1767 12.2639 14.3731C13.0367 13.5695 14.0738 13.1148 15.172 13.1148C16.2701 13.1148 17.3073 13.5589 18.08 14.3731L19.0866 15.4199L20.5203 16.9214L21.954 15.4199L22.9607 14.3731C23.7436 13.5695 24.7706 13.1148 25.8687 13.1148M25.8687 11C24.2927 11 22.7166 11.6239 21.5168 12.8716L20.5102 13.9184L19.5035 12.8716C18.3037 11.6239 16.7277 11 15.1516 11C13.5756 11 11.9996 11.6239 10.7997 12.8716C8.40009 15.3671 8.40009 19.4169 10.7997 21.9124L19.7792 31.2504C20.1726 31.6596 20.8274 31.6596 21.2208 31.2504L30.2003 21.9124C32.5999 19.4169 32.5999 15.3671 30.2003 12.8716C29.0004 11.6239 27.4244 11 25.8484 11H25.8687Z" fill="#560075"/>
</svg>
