<svg width="37" height="37" viewBox="0 0 37 37" fill="none" xmlns="http://www.w3.org/2000/svg">
<g id="IG button">
<circle id="Ellipse 87" cx="18.5" cy="18.5" r="18.5" fill="#560075"/>
<path id="Vector" fill-rule="evenodd" clip-rule="evenodd" d="M14.5834 9.057C15.5965 9.01036 15.9195 9 18.5 9C21.0805 9 21.4035 9.01123 22.4157 9.057C23.4279 9.10277 24.1188 9.26427 24.7234 9.49832C25.3564 9.73755 25.9307 10.1115 26.4057 10.5951C26.8894 11.0693 27.2625 11.6427 27.5008 12.2766C27.7357 12.8812 27.8964 13.5721 27.943 14.5825C27.9896 15.5973 28 15.9203 28 18.5C28 21.0805 27.9888 21.4035 27.943 22.4166C27.8972 23.427 27.7357 24.118 27.5008 24.7225C27.2624 25.3565 26.8887 25.9309 26.4057 26.4057C25.9307 26.8894 25.3564 27.2625 24.7234 27.5008C24.1188 27.7357 23.4279 27.8964 22.4175 27.943C21.4035 27.9896 21.0805 28 18.5 28C15.9195 28 15.5965 27.9888 14.5834 27.943C13.573 27.8972 12.882 27.7357 12.2775 27.5008C11.6435 27.2624 11.0691 26.8887 10.5943 26.4057C10.111 25.9313 9.73695 25.3572 9.49832 24.7234C9.26427 24.1188 9.10364 23.4279 9.057 22.4175C9.01036 21.4027 9 21.0797 9 18.5C9 15.9195 9.01123 15.5965 9.057 14.5843C9.10277 13.5721 9.26427 12.8812 9.49832 12.2766C9.73731 11.6428 10.1116 11.0687 10.5951 10.5943C11.0693 10.1111 11.6431 9.73706 12.2766 9.49832C12.8812 9.26427 13.5721 9.10364 14.5825 9.057H14.5834ZM22.3389 10.767C21.337 10.7212 21.0365 10.7117 18.5 10.7117C15.9635 10.7117 15.663 10.7212 14.6611 10.767C13.7345 10.8093 13.2318 10.9639 12.8967 11.0943C12.4537 11.267 12.1367 11.4717 11.8042 11.8042C11.489 12.1109 11.2465 12.4842 11.0943 12.8967C10.9639 13.2318 10.8093 13.7345 10.767 14.6611C10.7212 15.663 10.7117 15.9635 10.7117 18.5C10.7117 21.0365 10.7212 21.337 10.767 22.3389C10.8093 23.2655 10.9639 23.7682 11.0943 24.1033C11.2463 24.5152 11.489 24.8892 11.8042 25.1958C12.1108 25.511 12.4848 25.7537 12.8967 25.9057C13.2318 26.0361 13.7345 26.1907 14.6611 26.233C15.663 26.2788 15.9626 26.2883 18.5 26.2883C21.0374 26.2883 21.337 26.2788 22.3389 26.233C23.2655 26.1907 23.7682 26.0361 24.1033 25.9057C24.5463 25.733 24.8633 25.5283 25.1958 25.1958C25.511 24.8892 25.7537 24.5152 25.9057 24.1033C26.0361 23.7682 26.1907 23.2655 26.233 22.3389C26.2788 21.337 26.2883 21.0365 26.2883 18.5C26.2883 15.9635 26.2788 15.663 26.233 14.6611C26.1907 13.7345 26.0361 13.2318 25.9057 12.8967C25.733 12.4537 25.5283 12.1367 25.1958 11.8042C24.8891 11.4891 24.5158 11.2465 24.1033 11.0943C23.7682 10.9639 23.2655 10.8093 22.3389 10.767ZM17.2866 21.4286C17.9643 21.7107 18.7188 21.7488 19.4214 21.5363C20.1241 21.3239 20.7311 20.8741 21.1389 20.2638C21.5468 19.6534 21.73 18.9205 21.6575 18.19C21.5849 17.4596 21.2611 16.777 20.7411 16.2589C20.4097 15.9276 20.009 15.674 19.5677 15.5163C19.1265 15.3585 18.6558 15.3005 18.1895 15.3465C17.7232 15.3925 17.2729 15.5413 16.871 15.7822C16.4691 16.0232 16.1256 16.3502 15.8653 16.7398C15.605 17.1294 15.4343 17.5718 15.3654 18.0353C15.2966 18.4988 15.3314 18.9718 15.4674 19.4202C15.6033 19.8686 15.837 20.2813 16.1515 20.6286C16.4661 20.9759 16.8538 21.2491 17.2866 21.4286ZM15.0472 15.0472C15.5006 14.5938 16.0389 14.2341 16.6313 13.9887C17.2238 13.7433 17.8588 13.617 18.5 13.617C19.1412 13.617 19.7762 13.7433 20.3687 13.9887C20.9611 14.2341 21.4994 14.5938 21.9528 15.0472C22.4062 15.5006 22.7659 16.0389 23.0113 16.6313C23.2567 17.2238 23.383 17.8588 23.383 18.5C23.383 19.1412 23.2567 19.7762 23.0113 20.3687C22.7659 20.9611 22.4062 21.4994 21.9528 21.9528C21.0371 22.8686 19.7951 23.383 18.5 23.383C17.2049 23.383 15.9629 22.8686 15.0472 21.9528C14.1314 21.0371 13.617 19.7951 13.617 18.5C13.617 17.2049 14.1314 15.9629 15.0472 15.0472ZM24.466 14.3442C24.5784 14.2382 24.6683 14.1107 24.7305 13.9693C24.7928 13.828 24.826 13.6755 24.8282 13.5211C24.8305 13.3666 24.8017 13.2133 24.7436 13.0702C24.6856 12.927 24.5994 12.797 24.4901 12.6878C24.3809 12.5785 24.2509 12.4923 24.1078 12.4343C23.9646 12.3762 23.8113 12.3474 23.6568 12.3497C23.5024 12.3519 23.35 12.3852 23.2086 12.4474C23.0672 12.5096 22.9397 12.5995 22.8337 12.7119C22.6276 12.9304 22.5147 13.2207 22.5191 13.5211C22.5235 13.8215 22.6448 14.1083 22.8572 14.3207C23.0696 14.5332 23.3565 14.6544 23.6568 14.6588C23.9572 14.6632 24.2475 14.5503 24.466 14.3442Z" fill="white"/>
</g>
</svg>
