<svg width="37" height="37" viewBox="0 0 37 37" fill="none" xmlns="http://www.w3.org/2000/svg">
<g id="Tiktok button">
<circle id="Ellipse 88" cx="18.5" cy="18.5" r="18.5" fill="#560075"/>
<path id="Vector" d="M24.8835 13.0631C24.7511 12.9968 24.6222 12.9241 24.4973 12.8452C24.1344 12.6128 23.8016 12.339 23.5062 12.0296C22.7661 11.2097 22.4897 10.378 22.3886 9.79624H22.3921C22.3076 9.31242 22.3424 9 22.3485 9H18.9793V21.6174C18.9793 21.7862 18.9793 21.9543 18.9724 22.1197C18.9724 22.14 18.9697 22.1586 18.9689 22.1814C18.9689 22.1898 18.9689 22.2 18.9663 22.2093V22.2169C18.9309 22.6694 18.7812 23.1067 18.5304 23.4901C18.2796 23.8735 17.9353 24.1913 17.5279 24.4156C17.1029 24.6498 16.6222 24.7726 16.1332 24.7719C14.5641 24.7719 13.2914 23.5324 13.2914 22.0015C13.2914 20.4699 14.5641 19.2303 16.1332 19.2303C16.4304 19.2303 16.726 19.2759 17.0084 19.3654L17.0127 16.042C16.155 15.9348 15.2836 16.001 14.4536 16.2365C13.6236 16.4719 12.853 16.8714 12.1904 17.4099C11.6097 17.8984 11.1215 18.4813 10.7477 19.1324C10.6056 19.3696 10.0687 20.3246 10.0041 21.8732C9.96318 22.7513 10.236 23.6632 10.3659 24.039V24.0474C10.447 24.2687 10.7643 25.0252 11.2803 25.6627C11.6965 26.1744 12.1882 26.6239 12.7396 26.9968V26.9884L12.7474 26.9968C14.3775 28.0691 16.1864 27.9991 16.1864 27.9991C16.4993 27.9864 17.548 27.9991 18.7387 27.4528C20.0594 26.8465 20.8108 25.9439 20.8108 25.9439C21.2912 25.4044 21.6733 24.7897 21.9406 24.126C22.2457 23.3491 22.3468 22.4187 22.3468 22.0471V15.3522C22.3877 15.3758 22.9326 15.7245 22.9326 15.7245C22.9326 15.7245 23.7171 16.2117 24.9401 16.5284C25.8171 16.7538 27 16.8019 27 16.8019V13.5621C26.5859 13.606 25.7447 13.4794 24.8826 13.0639L24.8835 13.0631Z" fill="white"/>
</g>
</svg>
