<svg width="37" height="37" viewBox="0 0 37 37" fill="none" xmlns="http://www.w3.org/2000/svg">
<g id="YT button">
<circle id="Ellipse 89" cx="18.5" cy="18.5" r="18.5" fill="#560075"/>
<path id="Vector" d="M28.5603 13.3535C28.4414 12.8993 28.2098 12.4881 27.8901 12.1636C27.5614 11.8291 27.1585 11.5899 26.7195 11.4684C25.0765 11.0046 18.4939 11.0046 18.4939 11.0046C15.7497 10.9712 13.0061 11.1183 10.2787 11.445C9.83971 11.5754 9.43759 11.82 9.10814 12.1571C8.78443 12.4906 8.54997 12.9019 8.42748 13.3526C8.13325 15.05 7.9903 16.7736 8.00054 18.5C7.99004 20.2249 8.13265 21.9479 8.42748 23.6474C8.54734 24.0962 8.78093 24.5056 9.10552 24.8364C9.4301 25.1671 9.83429 25.406 10.2787 25.5325C11.9436 25.9953 18.4939 25.9953 18.4939 25.9953C21.2416 26.0288 23.9886 25.8818 26.7195 25.555C27.1585 25.4335 27.5614 25.1943 27.8901 24.8598C28.2097 24.5354 28.441 24.1241 28.5594 23.6699C28.8613 21.9731 29.0081 20.2488 28.9977 18.5215C29.0204 16.7869 28.8738 15.0545 28.5603 13.3526V13.3535ZM16.4012 21.708V15.2929L21.8779 18.5009L16.4012 21.708Z" fill="white"/>
</g>
</svg>
