<svg width="34" height="33" viewBox="0 0 34 33" fill="none" xmlns="http://www.w3.org/2000/svg">
<path d="M25.5 8H8.5C7.67157 8 7 8.67157 7 9.5C7 10.3284 7.67157 11 8.5 11H25.5C26.3284 11 27 10.3284 27 9.5C27 8.67157 26.3284 8 25.5 8Z" fill="#560075"/>
<path d="M25.5 15H8.5C7.67157 15 7 15.6716 7 16.5C7 17.3284 7.67157 18 8.5 18H25.5C26.3284 18 27 17.3284 27 16.5C27 15.6716 26.3284 15 25.5 15Z" fill="#560075"/>
<path d="M25.5 22H8.5C7.67157 22 7 22.6716 7 23.5C7 24.3284 7.67157 25 8.5 25H25.5C26.3284 25 27 24.3284 27 23.5C27 22.6716 26.3284 22 25.5 22Z" fill="#560075"/>
</svg>
