<svg width="125" height="40" viewBox="0 0 125 40" fill="none" xmlns="http://www.w3.org/2000/svg">
<g clip-path="url(#clip0_6_2)">
<path fill-rule="evenodd" clip-rule="evenodd" d="M122.29 20.4505L98.3137 20.4704L101.79 10.787C102.083 9.97108 101.774 9.05549 101.046 8.5864C100.32 8.11731 99.3599 8.21432 98.7414 8.82028L92.4101 15.0248L94.1224 10.5731C94.4376 9.75314 94.1369 8.81895 93.4033 8.33923C92.6697 7.85951 91.6976 7.95917 91.0766 8.57843C91.0766 8.57843 90.3072 9.34651 89.1153 10.5066C87.3289 12.2448 84.5956 14.8586 82.155 17.0087C81.3352 17.7317 80.5473 18.4027 79.8494 18.9648C80.3222 17.2918 81.0439 15.2706 81.6478 13.6786C81.955 12.8693 82.2318 12.1677 82.4317 11.6707C82.6317 11.175 82.7509 10.8867 82.7509 10.8867C83.082 10.092 82.8277 9.17376 82.1364 8.66347C81.4438 8.15319 80.4943 8.18508 79.8388 8.74055L69.928 17.1244L71.6337 10.6528C71.8535 9.81958 71.4787 8.94785 70.7239 8.53723C69.969 8.12661 69.0354 8.28475 68.4594 8.92393L62.4419 15.5869L63.6801 10.6368C63.888 9.8063 63.5013 8.93722 62.7478 8.53457C61.9943 8.13325 61.0607 8.30069 60.4912 8.93855L54.6817 15.4526L55.9225 10.5624C56.1304 9.74384 55.7623 8.88539 55.0273 8.47344C54.2923 8.0615 53.3707 8.19704 52.7853 8.80433C52.7853 8.80433 52.2318 9.37973 51.3313 10.294C49.9805 11.6654 47.8591 13.7942 45.7124 15.8447C44.7258 16.7882 43.7273 17.7197 42.803 18.5476C43.2201 17.4499 43.7114 16.2699 44.1776 15.2095C44.6371 14.1543 45.0741 13.2015 45.3946 12.5132C45.7151 11.8248 45.9164 11.4102 45.9164 11.4102C46.3653 10.484 45.9799 9.36777 45.0569 8.91729C44.4451 8.61829 43.7512 8.69005 43.2215 9.03954C43.1129 8.92393 42.9963 8.81363 42.8705 8.71397C42.1978 8.17046 41.3609 7.95917 40.6285 7.96582C39.1652 7.99107 37.878 8.60766 36.5657 9.48604C35.2626 10.3804 33.9675 11.6043 32.7836 13.0913C32.4538 13.5072 32.1493 13.9258 31.8632 14.347C31.7798 14.363 31.6964 14.3816 31.6143 14.4095C30.5283 14.7696 29.4703 15.1337 28.4426 15.4978C30.8329 11.2401 32.4869 7.97778 32.4975 7.95917C32.9637 7.04093 32.5995 5.91804 31.6858 5.45027C30.7707 4.98251 29.6517 5.34795 29.1855 6.2662C29.1842 6.26886 28.6161 7.38643 27.66 9.17907C26.5238 11.3066 24.8459 14.3723 22.9562 17.5748C17.1837 19.9083 12.5567 22.2857 9.05136 24.5899C6.4942 26.2749 4.52898 27.9147 3.13585 29.5426C1.75994 31.1731 0.868706 32.8262 0.850166 34.6601C0.844869 35.6195 1.14548 36.5883 1.69637 37.3776C2.12279 37.9995 2.73195 38.4978 3.4113 38.8035C4.0933 39.1131 4.83489 39.246 5.59502 39.2447C7.18812 39.2354 8.88318 38.6879 10.7358 37.6527C12.5858 36.6122 14.5921 35.0601 16.7202 32.9126C18.4126 31.1984 20.1871 28.8237 21.963 26.1832C23.1667 24.3893 24.3665 22.4717 25.5014 20.5807C26.8257 20.0612 28.2201 19.5429 29.6676 19.0286C29.5219 19.6266 29.4385 20.218 29.4345 20.8066C29.4345 21.3502 29.5073 21.903 29.7126 22.4505C29.9152 22.994 30.2714 23.5375 30.7786 23.9401C31.4447 24.4756 32.2631 24.6869 32.9928 24.6869H33.0206C34.4839 24.6617 35.7698 24.0464 37.0835 23.1667C37.4066 22.9448 37.7297 22.7016 38.0515 22.4398C38.0754 22.7455 38.1416 23.0936 38.372 23.5215C38.5309 23.8086 38.8037 24.1248 39.1692 24.3374C39.5254 24.5501 39.9346 24.6391 40.2683 24.6391C40.275 24.6391 40.2816 24.6391 40.2869 24.6391C41.2523 24.5939 41.6972 24.2351 42.2163 23.8883C44.404 22.2697 47.6379 19.2 50.4215 16.4719C50.4943 16.4001 50.5685 16.3284 50.6413 16.2566L49.2045 21.9162C48.9926 22.7508 49.374 23.6172 50.1315 24.0225C50.889 24.4278 51.8186 24.2617 52.3907 23.6199L58.24 17.0606L57.0256 21.9149C56.8177 22.7455 57.2004 23.6106 57.9526 24.0132C58.7048 24.4172 59.6331 24.2551 60.2065 23.6212L66.0836 17.1124L64.8256 21.8857C64.619 22.6697 64.9461 23.5042 65.6281 23.9388C66.3114 24.3733 67.2026 24.3109 67.8211 23.79L76.8115 16.1849C76.6063 16.8147 76.4143 17.442 76.2448 18.0453C75.8965 19.3196 75.6316 20.4253 75.621 21.4923C75.6316 21.9189 75.6435 22.3641 75.9269 22.9634C76.0726 23.2571 76.3216 23.5973 76.7016 23.8511C77.0777 24.1075 77.5531 24.2271 77.9398 24.2218C78.541 24.2059 78.8655 24.0531 79.1952 23.9135C79.7898 23.6385 80.3407 23.269 80.9843 22.7999C82.8356 21.4392 85.3279 19.212 87.6427 17.0566L85.8656 21.6771C85.5504 22.497 85.8457 23.4219 86.5767 23.9056C87.3077 24.3879 88.2731 24.2962 88.8981 23.6823L95.546 17.1669L93.9158 21.7089C93.7105 22.2777 93.7966 22.9195 94.1436 23.4139C94.4905 23.9095 95.0626 24.2072 95.6651 24.2059L122.287 24.1846C123.313 24.1846 124.145 23.3474 124.145 22.3176C124.145 21.2877 123.311 20.4532 122.284 20.4545M14.0836 30.2828C12.1515 32.2349 10.3902 33.5731 8.92026 34.397C7.45297 35.2275 6.27305 35.5212 5.59105 35.5132C5.26395 35.5132 5.05737 35.4561 4.94481 35.4042C4.82959 35.3498 4.79781 35.3139 4.75279 35.2541C4.61771 35.0481 4.57269 34.9059 4.56739 34.6574C4.54752 34.2056 4.87992 33.2236 5.95787 31.9758C7.54699 30.1034 10.6153 27.754 15.098 25.3354C16.4461 24.6059 17.9226 23.8657 19.5276 23.1229C17.6048 26.0583 15.6661 28.6948 14.0836 30.2841M39.8909 14.1158C39.4632 15.0819 38.8064 16.1742 37.9601 17.2386C36.9908 18.4612 35.9274 19.4472 34.9911 20.0864C34.2072 20.6405 33.4907 20.8983 33.1597 20.9488C33.1557 20.9076 33.1544 20.8598 33.1544 20.804C33.1478 20.3522 33.3292 19.5044 33.7609 18.5436C34.1886 17.5788 34.8455 16.4865 35.6917 15.4234C36.661 14.2009 37.7257 13.2135 38.662 12.573C39.446 12.0202 40.1624 11.7624 40.4935 11.7106C40.4974 11.7518 40.4988 11.7996 40.4988 11.8541C40.5067 12.3046 40.324 13.1537 39.8909 14.1145M33.2775 4.23968C34.3965 4.20779 35.2785 3.27094 35.248 2.14804C35.2163 1.02382 34.2826 0.140127 33.1636 0.170691C32.0446 0.202584 31.1627 1.13943 31.1945 2.26233C31.2262 3.38522 32.1598 4.27024 33.2789 4.23835M83.9335 7.22564C85.0538 7.19375 85.9344 6.2569 85.904 5.134C85.8722 4.00978 85.03 3.12609 83.9096 3.15665C82.7906 3.18855 81.8186 4.1254 81.8491 5.24829C81.8808 6.37118 82.8145 7.2562 83.9335 7.22431" fill="#FF2C87"/>
</g>
<defs>
<clipPath id="clip0_6_2">
<rect width="125" height="40" fill="white"/>
</clipPath>
</defs>
</svg>
